<svg width="22" height="21" viewBox="0 0 22 21" fill="none" xmlns="http://www.w3.org/2000/svg">
<path d="M18.4692 0.947228C18.5724 0.361706 18.6225 0 18.6225 0H3.01823C3.01823 0 3.06812 0.361735 3.17151 0.947228H0L0.0549959 1.66445C0.105647 2.32385 0.39745 5.66789 1.17911 6.74652C2.02561 7.91432 5.43825 9.33081 6.58583 9.7827C8.15883 11.5449 9.2903 11.5736 9.69381 12.7334C9.92892 13.4095 9.53562 15.8229 9.12571 16.7112C9.02932 16.9204 8.48333 16.8735 7.88272 17.5798H7.49282V18.147C7.49074 18.1508 7.48848 18.154 7.4864 18.1578H7.49282V20.3703H7.27642C7.10331 20.3703 6.96194 20.512 6.96194 20.6851C6.96194 20.8583 7.10368 21 7.27642 21H14.4752C14.6483 21 14.7901 20.8583 14.7901 20.6851C14.7901 20.512 14.6483 20.3703 14.4752 20.3703H14.1549V17.5796H13.7586C13.1579 16.8733 12.6119 16.9202 12.5156 16.711C12.1056 15.8229 11.7122 13.4093 11.9475 12.7332C12.351 11.5734 13.4823 11.5447 15.0554 9.78249C16.2026 9.33061 19.6157 7.91411 20.4622 6.74631C21.2438 5.66772 21.5357 2.32369 21.5863 1.66424L21.6413 0.947018H18.4692L18.4692 0.947228ZM2.25824 5.96447C1.90596 5.47876 1.60281 3.71053 1.45011 2.27968H3.43079C3.77457 3.90426 4.34192 6.08088 5.16345 7.72075C3.83463 7.10198 2.58313 6.41254 2.25824 5.96442V5.96447ZM19.3831 5.96447C19.0583 6.41257 17.8068 7.10242 16.4781 7.72079C17.2993 6.08107 17.867 3.90426 18.2108 2.27972H20.1915C20.0386 3.71039 19.7352 5.47861 19.3831 5.96452V5.96447Z" fill="white" fill-opacity="0.7"/>
</svg>
